<svg version="1.2" xmlns="http://www.w3.org/2000/svg" viewBox="0 0 194 28" width="194" height="28">
	<title>kanbask-black</title>
	<defs>
		<clipPath clipPathUnits="userSpaceOnUse" id="cp1">
			<path d="m-16-50h227.56v128h-227.56z"/>
		</clipPath>
	</defs>
	<style>
		.s0 { fill: #000000 } 
	</style>
	<g id="Clip-Path" clip-path="url(#cp1)">
		<g>
			<path class="s0" d="m23.9 21.5c0.8 0 2.1 0.2 2.7-0.3 1.7-1.2 5.3-13.6 7.2-16.5 0.5-0.8 1.1-1.5 1.9-2 1.8-1 4.4-1.1 6.4-0.6 1.3 0.4 2.4 1 3.2 2 1.2 1.4 1.7 3.4 2.3 5.1l2.5 6.6c0.7 1.7 1.2 3.6 2.1 5.2 1.4 0.5 2.7 0.4 4.1 0.4q-0.1-4.6-0.1-9.1c0-1.8-0.1-3.7 0.2-5.4q0.2-1.4 1-2.6c0.8-1.3 2-2 3.5-2.3 1.6-0.3 3.2 0 4.6 0.9 2.7 2 5.3 8 6.8 11 0.4 0.8 1 2.3 1.8 2.7 0.2 0.2 0.2 0.2 0.5 0.1 0.2-0.3 0.2-0.6 0.3-0.9 0.1-1.9 0-3.9-0.1-5.8 0-2.6 0.1-5.3 0.1-8h17.8c2.9 0 5.7-0.2 8.6-0.1 2.7 0.2 5.6 0.5 7.5 2.6 1.6 1.8 2.2 4.8 0.9 6.9-0.4 0.8-1.9 1.7-1.9 2.5 0.3 0.7 1.4 1.3 1.9 1.8 0.4 0.4 0.7 1.3 0.7 1.8 0.4 0.4 0.4 1 0.4 1.5 0 1.8-0.8 3.6-2.1 4.9-1.2 1.2-2.7 1.8-4.4 2.2-3.1 0.7-6.4 0.4-9.6 0.3h-10.3v-14.5c3.5-0.1 6.9 0 10.4 0 1.7 0 3.3 0.2 5 0.1 0.8-0.1 1.6-0.1 2.3-0.4 0.6-0.3 1.1-0.7 1.3-1.3 0.2-0.4 0.2-0.9 0-1.4-0.3-0.6-1-1-1.6-1.2-0.7-0.3-1.5-0.3-2.2-0.4-3-0.1-6 0-9 0-2.3 0-4.8-0.1-7.1 0-0.4 0-0.8 0-1.2 0.2-0.8 0.9-0.3 9.3-0.3 11-0.1 2.2 0 4.7-1.8 6.3-1 1.1-2.8 1.7-4.3 1.7-3.7-0.1-5.5-3.9-7.1-6.7q-1.4-2.5-2.8-5c-0.5-0.9-1-2.2-1.7-2.9-0.2-0.2-0.3-0.2-0.6-0.2-0.6 0.6-0.4 12.6-0.4 14.7h-16.3v-0.1c-0.4-1-1-3.4-2-3.8-1.5-0.6-9.3-0.5-10.8 0.1-1 0.4-1.6 2.8-2 3.8h-13.5c-2.6-2.9-5-6.1-7.5-9.2q-1 1-1.9 2 0 3.6 0 7.2h-7.5v-24.5c2.5-0.1 5 0 7.5 0v9.5c2.9-3.1 5.7-6.4 8.5-9.5h8.8c-3.3 3.6-6.8 7-10.1 10.6 2.7 2.8 4.8 6.2 7.4 9zm75.9-0.4c1.2-0.2 2.4-0.5 3.2-1.4 0.3-0.4 0.5-0.9 0.4-1.5 0-0.5-0.4-1-0.8-1.4-1.7-1.2-6-0.9-8.2-0.7-1 0-1.9 0.1-2.6 0.9-0.4 0.4-0.6 0.9-0.6 1.4 0 0.7 0.4 1.3 0.9 1.7 1.4 1.3 5.7 1.2 7.6 1 0 0 0.1 0 0.1 0zm-59.6-3.7c0.7 0 1.9 0.1 2.5-0.4 0.2-0.2 0.3-0.4 0.3-0.7-0.1-1.5-1.8-7.5-2.9-8.5-0.2-0.2-0.5-0.2-0.8-0.2-0.8 1.3-3.5 7.4-3.1 9 0.1 0.2 0.2 0.4 0.5 0.5 0.9 0.5 2.5 0.3 3.5 0.3z"/>
			<path class="s0" d="m124.3 1.8q1.3-0.1 2.6 0.1c1.3 0.2 2.9 0.8 3.8 1.9 0.5 0.8 0.9 1.6 1.3 2.5 0.7 1.5 5.7 13.8 5.6 14.8h11c2.2 0 4.5 0.2 6.6-0.1 0.8-0.1 1.6-0.2 2.2-0.8 0.4-0.3 0.6-0.9 0.6-1.4q0-0.8-0.5-1.3c-1.6-1.5-6.9-0.9-9.1-0.8-2.7 0-5.5-0.3-7.5-2.3-1.2-1.2-1.9-3.3-1.9-5 0-1.9 0.6-3.7 2-5 1.3-1.3 3-1.9 4.7-2.3 3.8-0.7 8-0.2 11.9-0.2q8.7 0 17.3 0c0.9 1.2 0.1 6.4 0.3 8.1 0 0.3 0 0.5 0.2 0.7 0.4 0 0.7-0.3 1-0.5 1.1-1 7.1-7.2 7.2-8.3h9.2c0 0.1 0 0.1 0 0.2-0.3 0.8-9.5 9.9-10.6 10.5q0.2 0.1 0.5 0.4c1.4 1.3 3.2 4.1 4.5 5.7 1.9 2.4 4 4.7 5.6 7.2 0.2 0.2 0.2 0.3 0.2 0.5-2.5 0.1-5 0.1-7.5 0.1-0.3 0-0.8 0-1.1-0.1-0.8-0.3-5.4-7.7-7-8.4-1 0.1-1.5 0.9-2.3 1.5q0 0 0 0 0.1 0.2 0.1 0.4c0.2 1 0.2 5.8-0.3 6.6-2.5 0.1-5.1 0-7.6-0.1 0.2-0.2 0.3-0.5 0.3-0.8 0.3-2.9 0-5.8 0-8.6 0-2.8 0.2-5.8 0-8.5-0.1-0.3-0.1-0.5-0.3-0.8-0.4-0.2-0.7-0.2-1.1-0.2-3.5-0.2-7 0-10.5 0-1.8 0-3.6-0.2-5.4-0.2-1.1 0.1-2.7 0.1-3.5 1-0.3 0.4-0.4 0.8-0.4 1.3 0.1 4.9 12.9 0.1 17.2 4.4 1.3 1.2 1.8 3 1.9 4.8 0 1.8-0.7 3.7-2 5-1.3 1.3-3 2.1-4.7 2.4-3.2 0.7-6.7 0.3-10 0.3h-16.5c0-0.1 0-0.2 0-0.3 0.1-1-0.7-2.6-1.4-3.2-0.9-1-4.1-0.8-5.3-0.8-1.5 0-5-0.2-6.1 0.8-0.5 0.4-0.6 1-0.8 1.6-0.2 0.7-0.3 1.3-0.8 1.8q-0.1 0-0.1 0c-1.7 0.3-5.9 0.1-7.9 0.1 1.4-1.1 5.8-13.4 6.7-15.9 0.8-2.1 1.5-4.6 2.8-6.4 1.2-1.6 3-2.1 4.9-2.4zm1.1 15.5c1 0 2.5 0.2 3.3-0.6 0.1-0.1 0.1-0.2 0.1-0.4-0.1-1.3-2.3-7.6-3.3-8.5-0.2-0.2-0.5-0.1-0.8-0.1v0.1c-0.5 1.6-3.5 7.4-2.8 8.8 0.1 0.3 0.5 0.4 0.8 0.5 0.9 0.3 1.8 0.2 2.7 0.2z"/>
		</g>
	</g>
</svg>